<?xml version="1.0" encoding="UTF-8" standalone="no"?>
<svg width="800px" height="800px" viewBox="0 0 1024 1024" class="icon"  version="1.1" xmlns="http://www.w3.org/2000/svg">
  <path d="M853.333333 256H469.333333l-85.333333-85.333333H170.666667c-46.933333 0-85.333333 38.4-85.333334 85.333333v170.666667h853.333334v-85.333334c0-46.933333-38.4-85.333333-85.333334-85.333333z" fill="#FFA000"></path>
  <path d="M853.333333 256H170.666667c-46.933333 0-85.333333 38.4-85.333334 85.333333v426.666667c0 46.933333 38.4 85.333333 85.333334 85.333333h682.666666c46.933333 0 85.333333-38.4 85.333334-85.333333V341.333333c0-46.933333-38.4-85.333333-85.333334-85.333333z" fill="#FFCA28"></path>
  <g transform="matrix(0.061948, 0, 0, -0.047354, 531.474869, 856.269496)" fill="#000000" stroke="none" style="">
    <path d="M3100 12769 c-102 -5 -202 -14 -223 -21 -49 -15 -119 -77 -143 -125
-10 -22 -20 -72 -23 -118 l-6 -79 -70 -12 c-220 -37 -359 -165 -422 -384 -17
-62 -18 -125 -15 -1250 2 -652 7 -1252 12 -1335 12 -202 42 -297 125 -393 43
-49 117 -103 145 -105 17 -1 20 -9 21 -52 1 -27 4 -130 8 -227 5 -157 8 -180
27 -204 43 -58 68 -69 160 -69 l84 0 0 -187 0 -188 -62 0 c-102 -1 -166 -39
-194 -117 -15 -42 -17 -282 -5 -645 5 -187 8 -209 27 -234 42 -57 69 -69 157
-70 l82 0 3 -187 2 -187 -64 0 c-77 0 -111 -11 -152 -52 -53 -50 -55 -75 -52
-503 3 -435 2 -427 74 -481 32 -25 45 -28 118 -28 l81 -1 0 -185 0 -185 -75
-5 c-93 -6 -135 -29 -167 -90 l-24 -45 3 -405 c3 -384 4 -407 23 -439 35 -60
66 -75 163 -81 l87 -5 0 -184 0 -185 -55 -3 c-121 -7 -155 -24 -190 -94 -19
-36 -20 -60 -20 -436 0 -394 0 -399 23 -443 34 -69 74 -90 168 -90 l79 0 2
-165 c1 -91 2 -173 2 -182 1 -15 -13 -20 -82 -29 -86 -11 -118 -27 -156 -78
-20 -27 -21 -39 -21 -455 l0 -428 28 -36 c40 -53 74 -67 162 -67 l75 0 0 -64
0 -64 -32 -7 c-90 -19 -166 -85 -211 -182 -21 -47 -22 -55 -19 -353 3 -277 5
-309 23 -349 41 -94 104 -150 189 -168 44 -9 113 -8 710 17 248 11 267 13 316
36 61 29 107 78 140 148 23 50 24 57 24 353 0 280 -2 306 -20 357 -36 94 -136
175 -217 176 l-33 0 0 429 0 429 78 3 c67 3 84 8 114 31 68 52 68 50 68 499 0
387 -1 404 -21 445 -32 66 -74 87 -170 85 l-79 -1 0 190 0 190 74 0 c59 0 79
4 106 23 43 29 69 65 79 108 4 19 6 207 3 419 -4 358 -5 388 -24 427 -29 64
-68 83 -167 83 l-81 0 0 184 0 185 58 6 c108 11 122 16 155 49 58 58 61 83 54
514 l-7 385 -25 42 c-33 57 -74 75 -169 75 l-76 0 0 184 0 183 79 7 c96 9 136
31 169 96 l23 45 -3 400 c-3 400 -3 400 -27 441 -35 61 -82 84 -175 84 l-76 0
0 185 0 185 53 0 c71 0 121 16 161 50 56 50 58 64 54 505 -3 400 -3 400 -27
438 -33 54 -84 77 -171 77 l-70 0 0 88 c0 51 4 82 9 74 9 -15 65 -10 166 15
176 44 307 178 362 373 17 62 18 127 15 1255 -2 655 -7 1258 -12 1340 -13 209
-47 303 -146 402 -70 70 -155 110 -265 124 -46 6 -89 13 -95 14 -6 2 -13 36
-16 79 -6 95 -40 156 -112 201 -47 28 -55 30 -160 31 -61 1 -194 -2 -296 -7z
m777 -4741 c-1 -68 -3 -13 -3 122 0 135 2 190 3 123 2 -68 2 -178 0 -245z
m-1139 -55 c-10 -2 -28 -2 -40 0 -13 2 -5 4 17 4 22 1 32 -1 23 -4z m1000
-680 c-10 -2 -28 -2 -40 0 -13 2 -5 4 17 4 22 1 32 -1 23 -4z m-1025 -760 c-7
-2 -21 -2 -30 0 -10 3 -4 5 12 5 17 0 24 -2 18 -5z m-146 -310 c-2 -38 -3 -7
-3 67 0 74 1 105 3 68 2 -38 2 -98 0 -135z m1146 -370 c-7 -2 -21 -2 -30 0
-10 3 -4 5 12 5 17 0 24 -2 18 -5z m-1126 -2950 c-1 -59 -3 -13 -3 102 0 116
2 164 3 108 2 -56 2 -151 0 -210z m216 -220 c-7 -2 -19 -2 -25 0 -7 3 -2 5 12
5 14 0 19 -2 13 -5z m1000 -680 c-7 -2 -19 -2 -25 0 -7 3 -2 5 12 5 14 0 19
-2 13 -5z m-1000 -760 c-13 -2 -33 -2 -45 0 -13 2 -3 4 22 4 25 0 35 -2 23 -4z
m1114 -405 c-3 -8 -6 -5 -6 6 -1 11 2 17 5 13 3 -3 4 -12 1 -19z m-639 -775
c-10 -2 -28 -2 -40 0 -13 2 -5 4 17 4 22 1 32 -1 23 -4z"></path>
  </g>
</svg>