<?xml version="1.0"?>
<svg width="24" height="24" xmlns="http://www.w3.org/2000/svg" xmlns:svg="http://www.w3.org/2000/svg">
 <g class="layer">
  <title>Layer 1</title>
  <path d="m20,6.53l0,12.97c0,1.38 -1.12,2.5 -2.5,2.5l-11,0c-1.38,0 -2.5,-1.12 -2.5,-2.5l0,-15c0,-1.38 1.12,-2.5 2.5,-2.5l8.97,0c0.13,-0.01 0.27,0.04 0.38,0.15l4,4c0.11,0.11 0.16,0.25 0.15,0.38zm-5,-3.53l-8.5,0c-0.83,0 -1.5,0.67 -1.5,1.5l0,15c0,0.83 0.67,1.5 1.5,1.5l11,0c0.83,0 1.5,-0.67 1.5,-1.5l0,-12.5l-3.5,0c-0.28,0 -0.5,-0.22 -0.5,-0.5l0,-3.5zm1,0.71l0,2.29l2.29,0l-2.29,-2.29z" id="svg_1"/>
  <text fill="#000000" font-family="Helvetica" font-size="8" id="svg_3" stroke="#000000" stroke-width="0" text-anchor="middle" x="11.93" xml:space="preserve" y="14.9">?</text>
 </g>
</svg>