<?xml version="1.0" encoding="iso-8859-1"?>
<!-- Uploaded to: SVG Repo, www.svgrepo.com, Generator: SVG Repo Mixer Tools -->
<svg height="800px" width="800px" version="1.1" id="Layer_1" xmlns="http://www.w3.org/2000/svg" xmlns:xlink="http://www.w3.org/1999/xlink" 
	 viewBox="0 0 464 464" xml:space="preserve">
<polygon style="fill:#FFF8EF;" points="296,264 317.6,300 296,311.2 276,301.6 "/>
<path style="fill:#7AC943;" d="M326.4,313.6l51.2,86.4H276.8l-27.2-48l19.2-36l24,12c0.8,0,1.6,0,3.2,0s2.4,0,4-0.8L326.4,313.6z"/>
<polygon style="fill:#E0CBB5;" points="412.8,120 320,120 320,27.2 "/>
<path style="fill:#6CD3D8;" d="M344,224c13.6,0,24-11.2,24-24s-10.4-24-24-24s-24,11.2-24,24S330.4,224,344,224z M80,168h304v211.2
	L303.2,244c-1.6-2.4-4.8-4-7.2-4c-3.2,0-5.6,1.6-7.2,4L240,335.2L175.2,220c-1.6-2.4-4.8-4-7.2-4c-3.2,0-5.6,1.6-7.2,4L80,375.2V168
	z"/>
<circle style="fill:#FF7D00;" cx="344" cy="200" r="8"/>
<path style="fill:#42210B;" d="M344,192c-4,0-8,4-8,8s4,8,8,8s8-4,8-8S348,192,344,192z M320,200c0-12.8,10.4-24,24-24
	s24,11.2,24,24s-10.4,24-24,24S320,212.8,320,200z"/>
<polygon style="fill:#D9CDC1;" points="168,240.8 205.6,307.2 168,320 132.8,308 "/>
<path style="fill:#67BC34;" d="M165.6,336c0.8,0,1.6,0,2.4,0s1.6,0,2.4,0l43.2-14.4l44.8,78.4H84.8l40.8-77.6L165.6,336z"/>
<path style="fill:#42210B;" d="M296,264l-20,36.8l20,9.6l21.6-11.2L296,264z M205.6,307.2L168,240.8L132.8,308l35.2,12L205.6,307.2z
	 M303.2,244L384,379.2V168H80v207.2L160.8,220c1.6-2.4,4-4,7.2-4s5.6,1.6,7.2,4L240,335.2l48.8-91.2c1.6-2.4,4-4,7.2-4
	C298.4,240,301.6,241.6,303.2,244z M392,152c4,0,8,4,8,8v248c0,4-4,8-8,8H72c-4.8,0-8-4-8-8V160c0-4,3.2-8,8-8H392z M268.8,315.2
	L249.6,352l27.2,48h100.8l-52-86.4l-26.4,13.6c-0.8,0.8-1.6,0.8-3.2,0.8s-2.4,0-4-0.8L268.8,315.2z M258.4,400l-44.8-78.4L170.4,336
	c-0.8,0-1.6,0-2.4,0s-1.6,0-2.4,0l-40-13.6L84.8,400H258.4z"/>
<path style="fill:#FFF8EF;" d="M392,136h-80c-4,0-8-4-8-8V16H40v392v40h384V136H392z M400,408c0,4-4,8-8,8H72c-4,0-8-4-8-8V160
	c0-4,4-8,8-8h320c4,0,8,4,8,8V408z"/>
<path style="fill:#42210B;" d="M24,456V8c0-4,3.2-8,8-8h280c2.4,0,4,0.8,5.6,2.4l120,120c1.6,1.6,2.4,3.2,2.4,5.6v328c0,4-4,8-8,8
	H32C27.2,464,24,460,24,456z M40,408v40h384V136h-32h-80c-4,0-8-4-8-8V16H40V408z M412.8,120L320,27.2V120H412.8z"/>
<path style="fill:#D9CDC1;" d="M304,24H74.4C60,24,48,36,48,50.4v368c0,12,9.6,22.4,22.4,22.4h326.4c11.2,0,20-8.8,20-20V136h8v312
	H40V16h264V24z"/>
<path style="fill:#7AC943;" d="M213.6,320.8L170.4,336c-0.8,0-1.6,0-2.4,0s-1.6,0-2.4,0l-26.4-8.8L124,372
	c-2.4,6.4,1.6,12.8,8.8,14.4L216,400h42.4L213.6,320.8z"/>
<polygon style="fill:#FFF8EF;" points="168,320 205.6,307.2 168,240.8 144,312 "/>
<g>
	<polygon style="fill:#67BC34;" points="276.8,400 336,400 268,384.8 	"/>
	<polygon style="fill:#67BC34;" points="268.8,315.2 249.6,352 264.8,380 280.8,321.6 	"/>
</g>
<polygon style="fill:#D9CDC1;" points="284.8,305.6 296,264 276,301.6 "/>
</svg>